<?xml version="1.0" standalone="no"?>
<!DOCTYPE svg PUBLIC "-//W3C//DTD SVG 20010904//EN"
 "http://www.w3.org/TR/2001/REC-SVG-20010904/DTD/svg10.dtd">
<svg version="1.0" xmlns="http://www.w3.org/2000/svg"
 width="512.000000pt" height="512.000000pt" viewBox="0 0 512.000000 512.000000"
 preserveAspectRatio="xMidYMid meet">

<g transform="translate(0.000000,512.000000) scale(0.100000,-0.100000)"
fill="#000000" stroke="none">
<path d="M1145 4441 c-16 -10 -281 -270 -588 -578 -516 -518 -557 -561 -557
-593 0 -30 23 -56 258 -292 141 -143 269 -266 284 -274 32 -17 69 -10 94 17 9
10 23 19 29 19 17 0 170 -160 189 -198 9 -17 25 -68 35 -114 53 -225 161 -433
305 -586 l67 -70 -30 -47 c-116 -184 -6 -418 210 -450 46 -7 47 -7 53 -52 18
-134 119 -235 257 -258 34 -5 37 -9 43 -47 10 -65 40 -122 86 -168 59 -59 119
-83 205 -83 78 0 126 17 184 62 34 27 41 29 102 24 109 -9 205 37 255 122 l26
45 44 -32 c54 -39 138 -58 207 -47 84 14 146 60 202 153 9 15 14 15 55 -6 65
-32 167 -32 233 2 101 51 164 159 155 260 l-5 48 46 18 c64 25 134 98 156 163
22 66 16 165 -12 213 l-19 33 88 99 c132 146 198 250 262 411 19 50 42 122 51
160 35 153 27 140 183 297 l146 148 31 -29 c39 -36 59 -43 93 -30 31 11 516
490 538 531 8 15 14 37 14 50 0 16 -135 158 -507 531 -280 280 -521 515 -537
522 -20 9 -38 10 -56 4 -14 -5 -144 -128 -288 -272 -243 -244 -262 -265 -262
-298 0 -27 8 -43 35 -69 l35 -34 -72 -74 c-41 -42 -93 -83 -118 -95 -63 -29
-146 -26 -230 7 -102 41 -211 60 -310 52 -92 -6 -192 -31 -256 -64 -35 -18
-47 -19 -85 -10 -58 13 -174 3 -268 -23 -85 -24 -157 -22 -212 6 -19 10 -87
69 -151 133 l-117 115 19 28 c11 15 20 42 20 61 0 30 -24 57 -267 300 -161
160 -278 269 -293 273 -16 3 -36 -2 -55 -14z m-75 -1056 l-495 -495 -190 190
-190 190 495 495 495 495 190 -190 190 -190 -495 -495z m3665 -225 l-190 -190
-440 440 -440 440 190 190 190 190 440 -440 440 -440 -190 -190z m-3004 395
c103 -101 141 -131 195 -157 91 -42 194 -49 308 -20 l78 21 -268 -272 c-303
-306 -315 -322 -322 -447 -3 -60 0 -87 17 -131 55 -146 203 -230 359 -207 87
14 129 42 285 197 l148 145 525 -524 c404 -405 527 -533 535 -560 23 -76 -42
-149 -120 -136 -30 5 -92 63 -451 420 -265 265 -425 417 -441 421 -31 8 -83
-16 -93 -40 -3 -9 -6 -31 -6 -48 0 -28 49 -80 444 -477 245 -245 449 -457 455
-472 14 -36 -3 -92 -36 -118 -17 -13 -41 -20 -71 -20 l-46 0 -431 430 c-391
390 -434 430 -463 430 -44 0 -82 -38 -82 -81 0 -30 35 -68 355 -389 257 -258
355 -363 357 -381 4 -65 -13 -104 -54 -125 -42 -22 -81 -17 -124 15 -21 16
-199 189 -394 385 -329 330 -357 356 -389 356 -47 0 -81 -33 -81 -79 0 -33 19
-55 284 -321 157 -157 290 -297 295 -312 20 -54 -10 -117 -66 -139 -45 -17
-50 -12 -56 56 -13 140 -117 253 -251 271 -42 6 -44 8 -50 47 -10 59 -42 127
-79 166 -40 42 -141 91 -188 91 -36 0 -36 0 -42 49 -17 147 -137 253 -291 256
l-69 1 -74 77 c-138 144 -225 305 -278 512 -41 161 -65 204 -177 320 l-97 100
407 408 c224 224 409 407 411 407 3 0 62 -56 132 -125z m2263 -264 l330 -330
-140 -143 c-78 -81 -151 -165 -166 -193 -15 -28 -38 -95 -51 -151 -54 -215
-131 -365 -275 -529 -46 -52 -86 -95 -90 -95 -4 0 -121 114 -261 254 l-254
254 49 7 c77 10 133 26 159 47 35 27 35 86 0 118 -21 20 -30 22 -67 14 -24 -4
-79 -8 -123 -8 -74 -1 -87 2 -165 40 -82 40 -204 128 -264 193 l-30 31 49 50
c40 41 49 56 49 85 0 47 -32 79 -79 79 -33 0 -53 -17 -283 -246 -136 -136
-260 -252 -275 -257 -132 -50 -260 72 -217 205 10 30 74 101 279 307 274 277
365 359 438 396 69 34 152 52 249 52 80 1 105 -4 197 -35 127 -45 187 -52 269
-36 94 18 157 54 250 141 46 43 85 78 88 79 3 0 153 -148 334 -329z m-2426
-1634 c49 -49 45 -142 -8 -189 -55 -50 -162 -32 -195 32 -30 58 -12 140 38
173 49 32 124 25 165 -16z m254 -277 c53 -15 88 -61 88 -116 0 -83 -47 -134
-125 -134 -65 0 -120 44 -125 101 -8 90 33 143 120 158 3 1 22 -4 42 -9z m335
-316 c76 -48 72 -178 -7 -219 -61 -31 -146 -11 -174 43 -28 53 -24 111 10 151
42 50 115 60 171 25z"/>
<path d="M486 3268 c-54 -49 -24 -138 47 -138 41 0 63 15 76 50 12 37 1 72
-31 94 -31 22 -62 20 -92 -6z"/>
<path d="M4582 3354 c-66 -46 -36 -143 44 -144 70 0 103 91 49 138 -31 26 -62
28 -93 6z"/>
</g>
</svg>
