<?xml version="1.0" standalone="no"?>
<!DOCTYPE svg PUBLIC "-//W3C//DTD SVG 20010904//EN"
 "http://www.w3.org/TR/2001/REC-SVG-20010904/DTD/svg10.dtd">
<svg version="1.0" xmlns="http://www.w3.org/2000/svg"
 width="512.000000pt" height="512.000000pt" viewBox="0 0 512.000000 512.000000"
 preserveAspectRatio="xMidYMid meet">

<g transform="translate(0.000000,512.000000) scale(0.100000,-0.100000)"
fill="#000000" stroke="none">
<path d="M466 4389 c-62 -15 -153 -68 -197 -116 -22 -24 -55 -74 -72 -111
l-32 -67 0 -495 0 -495 32 -67 c44 -93 100 -151 191 -196 l76 -37 270 -3 271
-3 280 -280 c253 -251 284 -279 313 -279 22 0 41 9 57 25 l25 24 0 254 0 255
55 7 c75 9 183 65 235 121 23 25 56 75 73 112 l32 67 0 496 0 495 -37 76 c-64
129 -182 212 -321 225 -61 5 -67 4 -91 -20 -51 -51 -17 -137 55 -137 91 0 202
-81 227 -166 17 -58 17 -890 0 -948 -16 -55 -99 -138 -154 -154 -23 -7 -74
-12 -113 -12 -63 0 -75 -3 -96 -25 -25 -24 -25 -25 -25 -222 l0 -197 -223 222
-223 222 -273 0 c-186 0 -287 4 -315 12 -55 16 -138 99 -154 154 -17 58 -17
890 0 948 16 55 99 138 154 154 30 9 163 12 473 12 l432 0 24 25 c33 32 33 78
0 110 l-24 25 -443 -1 c-244 -1 -460 -5 -482 -10z"/>
<path d="M642 4067 c-53 -17 -128 -90 -146 -144 -24 -70 -20 -122 13 -188 29
-57 29 -59 12 -84 -32 -46 -41 -92 -41 -208 0 -108 1 -115 25 -138 24 -25 26
-25 215 -25 189 0 191 0 215 25 24 23 25 30 25 138 0 116 -9 162 -41 208 -17
25 -17 27 12 84 50 100 36 189 -46 270 -70 70 -152 91 -243 62z m133 -172 c50
-49 15 -135 -55 -135 -41 0 -80 39 -80 80 0 41 39 80 80 80 19 0 40 -9 55 -25z
m0 -320 c21 -20 25 -34 25 -80 l0 -55 -80 0 -80 0 0 55 c0 67 29 105 80 105
19 0 40 -9 55 -25z"/>
<path d="M1385 4055 c-16 -15 -25 -36 -25 -55 0 -19 9 -40 25 -55 23 -24 28
-25 175 -25 147 0 152 1 175 25 16 15 25 36 25 55 0 19 -9 40 -25 55 -23 24
-28 25 -175 25 -147 0 -152 -1 -175 -25z"/>
<path d="M3245 4035 c-90 -20 -168 -52 -234 -96 -56 -38 -61 -39 -103 -29
-197 45 -433 -47 -554 -216 -103 -144 -125 -286 -80 -508 40 -196 39 -201 -45
-336 -93 -150 -95 -155 -109 -226 -14 -72 1 -147 49 -243 47 -92 49 -125 11
-211 -41 -92 -48 -158 -25 -236 28 -96 68 -144 120 -144 65 0 96 74 55 135
-35 54 -36 104 -2 181 55 125 51 218 -16 351 -58 114 -53 140 52 308 37 59 74
125 82 147 21 60 17 149 -12 294 -44 218 -22 327 88 437 75 75 172 116 275
117 l42 0 -16 -37 c-9 -22 -17 -72 -19 -116 -2 -72 -4 -80 -37 -120 -84 -103
-140 -213 -180 -352 -28 -98 -36 -436 -13 -543 31 -148 125 -296 242 -380 87
-64 88 -86 2 -129 -94 -46 -181 -116 -258 -207 -37 -44 -158 -171 -268 -280
l-200 -199 -7 69 c-11 119 -24 177 -52 234 -37 75 -109 144 -191 183 l-67 32
-655 0 -655 0 -67 -32 c-37 -17 -87 -50 -112 -73 -56 -52 -112 -160 -121 -235
-10 -73 22 -382 41 -413 32 -49 97 -48 129 2 16 24 16 38 0 201 -15 149 -16
181 -4 222 17 62 96 143 155 161 30 9 199 12 640 12 l599 0 50 -24 c60 -28 98
-66 121 -121 11 -28 34 -213 75 -625 32 -322 59 -593 59 -603 0 -10 -11 -29
-25 -42 l-24 -25 -683 0 c-737 1 -722 0 -793 54 -66 51 -81 98 -105 331 -22
220 -27 237 -77 256 -30 11 -68 -4 -88 -34 -14 -23 -14 -41 5 -228 11 -112 26
-222 31 -244 29 -108 131 -224 236 -267 l58 -23 1695 -3 c1117 -1 1713 1 1749
8 185 34 347 195 381 379 6 29 10 177 10 328 l0 274 -25 24 c-29 30 -74 32
-106 6 l-24 -19 -5 -304 -5 -303 -27 -51 c-40 -76 -70 -107 -140 -145 l-63
-34 -482 -3 -483 -3 0 126 c0 118 1 125 20 125 10 0 193 16 406 35 212 19 390
35 396 35 5 0 20 11 33 25 l25 24 0 351 0 351 -25 24 c-32 33 -78 33 -110 0
l-25 -24 0 -301 c0 -290 -1 -300 -19 -300 -11 0 -191 -16 -401 -35 -411 -38
-538 -43 -544 -23 -2 7 -8 42 -14 78 -13 84 -43 161 -93 241 -110 176 -143
299 -121 452 18 123 73 230 165 322 39 40 90 81 112 93 l41 20 17 -48 c41
-116 147 -196 274 -207 175 -14 363 93 445 254 l33 65 71 -6 c132 -10 253 -67
348 -162 96 -96 151 -216 163 -352 5 -61 11 -81 29 -99 50 -50 134 -11 134 61
0 28 9 44 49 85 126 130 161 306 96 491 -36 104 -32 176 20 289 30 68 38 99
43 166 11 177 -54 308 -208 421 -126 92 -160 159 -160 316 0 91 -21 222 -41
260 -28 53 -84 64 -124 23 -29 -28 -30 -37 -10 -130 8 -39 15 -101 15 -139 l0
-68 -37 36 c-47 45 -104 74 -164 82 l-45 6 -13 72 c-30 180 -146 370 -294 482
l-62 47 40 -7 c78 -14 300 -136 393 -217 42 -37 76 -37 113 0 61 62 26 110
-166 232 -55 34 -131 77 -170 95 -129 60 -296 79 -430 49z m51 -245 c164 -79
274 -196 339 -357 13 -32 27 -75 30 -95 l7 -38 -36 15 c-19 8 -60 15 -90 15
-148 0 -310 44 -422 115 -71 44 -164 133 -164 155 0 34 32 107 61 143 33 41
122 97 153 97 10 0 65 -23 122 -50z m-321 -436 c136 -103 315 -167 503 -179
53 -4 102 -8 109 -10 8 -3 -1 -29 -25 -76 -35 -68 -37 -76 -37 -168 0 -77 5
-105 22 -143 l22 -48 -32 -24 c-111 -83 -240 -133 -369 -143 -95 -7 -128 -29
-128 -83 0 -50 38 -80 102 -80 138 0 339 69 461 156 27 20 51 33 54 30 3 -2
-10 -35 -28 -73 -59 -124 -179 -223 -316 -258 -256 -67 -528 107 -583 372 -8
38 -11 120 -8 243 6 207 19 269 85 390 36 67 90 140 101 140 4 0 34 -21 67
-46z m912 -249 c21 -9 46 -23 57 -33 54 -48 72 -170 37 -248 -33 -73 -112
-115 -175 -94 -80 26 -125 95 -126 188 0 90 35 151 105 183 49 23 56 23 102 4z
m397 -322 c79 -57 106 -84 134 -138 23 -43 27 -62 26 -135 0 -78 -3 -92 -39
-170 -38 -82 -39 -89 -40 -190 0 -91 4 -116 29 -188 24 -69 28 -91 23 -142 -4
-33 -17 -81 -30 -106 l-23 -46 -22 52 c-53 127 -173 265 -296 339 -77 46 -204
88 -292 96 l-74 7 0 68 c0 57 4 73 23 97 36 42 76 115 96 174 l19 53 62 12
c142 30 255 146 275 285 l7 47 35 -39 c20 -21 58 -56 87 -76z m-769 -670 c-8
-53 -41 -125 -79 -170 -14 -16 -53 -45 -88 -63 -54 -29 -73 -34 -135 -34 -57
-1 -77 3 -99 20 -55 41 -69 69 -73 156 l-3 81 23 -7 c13 -4 62 -10 109 -13 99
-6 203 13 283 51 29 13 56 25 61 25 4 1 5 -20 1 -46z m-1075 -924 l31 -93
-158 -158 c-112 -113 -159 -153 -161 -141 -1 10 -11 101 -21 203 l-19 185 141
143 142 142 7 -94 c5 -64 17 -124 38 -187z m148 -286 c24 -58 38 -106 47 -155
6 -37 5 -37 -44 -59 -28 -12 -56 -27 -62 -35 -9 -11 -44 -14 -148 -14 l-136 0
155 155 c85 85 158 155 161 155 4 0 16 -21 27 -47z m292 -463 l0 -120 -160 0
-160 0 0 54 c0 63 12 101 43 135 36 39 75 50 180 51 l97 0 0 -120z m-474 18
c-3 -13 -6 -49 -6 -80 l0 -58 -108 0 -108 0 1 80 0 80 114 0 c113 0 113 0 107
-22z"/>
<path d="M2825 3015 c-16 -15 -25 -36 -25 -55 0 -19 9 -40 25 -55 15 -16 36
-25 55 -25 19 0 40 9 55 25 16 15 25 36 25 55 0 19 -9 40 -25 55 -15 16 -36
25 -55 25 -19 0 -40 -9 -55 -25z"/>
<path d="M3225 3015 c-16 -15 -25 -36 -25 -55 0 -19 9 -40 25 -55 15 -16 36
-25 55 -25 19 0 40 9 55 25 16 15 25 36 25 55 0 19 -9 40 -25 55 -15 16 -36
25 -55 25 -19 0 -40 -9 -55 -25z"/>
<path d="M1145 3735 c-16 -15 -25 -36 -25 -55 0 -19 9 -40 25 -55 l24 -25 271
0 271 0 24 25 c16 15 25 36 25 55 0 19 -9 40 -25 55 l-24 25 -271 0 -271 0
-24 -25z"/>
<path d="M1145 3415 c-16 -15 -25 -36 -25 -55 0 -19 9 -40 25 -55 l24 -25 271
0 271 0 24 25 c16 15 25 36 25 55 0 19 -9 40 -25 55 l-24 25 -271 0 -271 0
-24 -25z"/>
<path d="M3553 1345 c-13 -9 -27 -35 -34 -58 -24 -92 -99 -180 -185 -218 -24
-11 -74 -23 -110 -28 -52 -6 -71 -13 -86 -31 -45 -56 -3 -130 74 -130 169 0
349 117 425 275 48 102 53 146 20 179 -30 30 -71 34 -104 11z"/>
<path d="M1040 1267 c-49 -16 -133 -102 -148 -153 -28 -94 -8 -169 63 -239
102 -103 243 -101 338 5 93 103 90 228 -8 325 -70 71 -152 91 -245 62z m135
-172 c16 -15 25 -36 25 -55 0 -19 -9 -40 -25 -55 -15 -16 -36 -25 -55 -25 -19
0 -40 9 -55 25 -16 15 -25 36 -25 55 0 19 9 40 25 55 15 16 36 25 55 25 19 0
40 -9 55 -25z"/>
</g>
</svg>
