<?xml version="1.0" standalone="no"?>
<!DOCTYPE svg PUBLIC "-//W3C//DTD SVG 20010904//EN"
 "http://www.w3.org/TR/2001/REC-SVG-20010904/DTD/svg10.dtd">
<svg version="1.0" xmlns="http://www.w3.org/2000/svg"
 width="512.000000pt" height="512.000000pt" viewBox="0 0 512.000000 512.000000"
 preserveAspectRatio="xMidYMid meet">

<g transform="translate(0.000000,512.000000) scale(0.100000,-0.100000)"
fill="#000000" stroke="none">
<path d="M2425 4949 c-27 -5 -79 -19 -115 -31 -255 -82 -450 -290 -526 -558
-16 -57 -18 -117 -22 -507 l-3 -443 25 -25 25 -25 216 0 215 0 0 -79 0 -79
-172 -4 c-216 -5 -261 -19 -354 -112 -101 -101 -108 -129 -112 -433 l-3 -253
-120 0 -119 0 0 215 c0 216 0 216 -25 240 -20 21 -34 25 -79 25 l-55 0 -3 508
-3 509 -29 37 c-49 65 -62 67 -381 64 -268 -3 -285 -4 -311 -24 -15 -11 -37
-33 -48 -48 -20 -27 -21 -40 -24 -537 l-3 -509 -55 0 c-45 0 -59 -4 -79 -25
-25 -24 -25 -24 -25 -240 0 -187 -2 -215 -15 -215 -9 0 -27 -11 -40 -25 l-25
-24 0 -1071 0 -1071 25 -24 24 -25 2351 0 2351 0 24 25 25 24 0 1071 0 1071
-25 24 c-13 14 -35 25 -47 25 -23 0 -26 11 -98 378 -63 315 -79 381 -97 400
-22 22 -22 22 -373 22 -351 0 -351 0 -373 -22 -18 -19 -34 -85 -97 -400 l-75
-378 -127 0 -127 0 -3 253 c-4 304 -11 332 -112 433 -93 93 -138 107 -353 112
l-173 4 0 79 0 79 215 0 216 0 25 25 25 25 -3 443 c-4 471 -4 464 -58 609 -12
32 -43 91 -70 131 -112 173 -271 287 -480 344 -68 18 -258 25 -325 12z m270
-164 c265 -55 476 -294 502 -568 l6 -70 -24 6 c-13 4 -31 7 -40 7 -10 0 -20
11 -23 25 -10 38 -41 51 -176 74 -150 25 -219 47 -297 96 -70 45 -113 84 -160
148 -19 26 -46 50 -59 53 -49 13 -71 -3 -140 -103 -69 -101 -174 -232 -215
-269 -17 -15 -42 -23 -86 -27 l-63 -5 0 36 c1 70 30 177 70 258 132 262 417
399 705 339z m-70 -601 c67 -34 120 -51 210 -69 66 -14 122 -25 123 -25 2 0 2
-78 0 -173 l-3 -173 -37 -76 c-45 -91 -103 -147 -196 -191 -61 -29 -76 -32
-162 -32 -86 0 -101 3 -162 32 -93 44 -151 100 -196 191 -37 76 -37 76 -41
224 l-3 148 72 82 c40 46 95 113 122 150 l50 68 67 -56 c36 -30 107 -75 156
-100z m-625 -264 c0 -65 -3 -80 -15 -80 -27 0 -65 47 -65 80 0 33 38 80 65 80
12 0 15 -15 15 -80z m1175 55 c16 -15 25 -36 25 -55 0 -33 -38 -80 -65 -80
-12 0 -15 15 -15 80 0 90 11 100 55 55z m-2135 -615 l0 -480 -240 0 -240 0 0
480 0 480 240 0 240 0 0 -480z m958 320 c20 0 32 -5 32 -14 0 -7 15 -43 33
-80 l34 -66 -89 0 -88 0 0 86 c0 85 0 86 23 80 12 -3 37 -6 55 -6z m1202 -75
l0 -85 -88 0 -89 0 34 66 c18 37 33 72 33 80 0 8 16 14 43 17 23 2 48 4 55 5
9 2 12 -21 12 -83z m-640 -320 c41 0 94 3 118 8 l42 7 0 -50 0 -50 -160 0
-160 0 0 50 0 50 43 -7 c23 -5 76 -8 117 -8z m681 -273 c39 -20 62 -41 84 -77
l30 -48 3 -244 3 -243 -105 0 -105 0 6 53 c4 37 -1 79 -16 137 -12 50 -21 115
-21 162 0 70 -3 82 -25 103 -32 33 -78 33 -111 0 -24 -25 -25 -28 -21 -138 2
-70 11 -133 22 -168 12 -40 16 -70 11 -103 l-7 -46 -448 0 -449 0 -6 23 c-11
42 -6 97 14 154 23 65 28 215 9 256 -22 49 -86 61 -124 22 -23 -22 -25 -32
-25 -107 0 -52 -6 -100 -17 -128 -10 -28 -17 -78 -17 -132 l-1 -88 -82 0 -83
0 0 233 c0 208 2 236 20 275 23 51 61 88 115 113 37 17 79 19 666 19 l627 0
53 -28z m1297 6 c-2 -13 -31 -157 -63 -320 l-60 -298 -238 0 -239 0 4 23 c2
12 31 156 63 320 l60 297 238 0 239 0 -4 -22z m-3338 -458 l0 -160 -400 0
-400 0 0 160 0 160 400 0 400 0 0 -160z m3469 13 c12 -65 25 -130 28 -145 l6
-28 -63 0 -62 0 5 28 c3 15 16 80 28 145 13 64 26 117 29 117 3 0 16 -53 29
-117z m131 -693 l0 -360 -239 0 -240 0 -3 228 -3 229 -29 37 c-49 65 -62 67
-381 64 -268 -3 -285 -4 -311 -24 -68 -50 -69 -53 -72 -305 l-3 -229 -279 0
-279 0 -3 228 -3 229 -29 37 c-49 65 -62 67 -381 64 -268 -3 -285 -4 -311 -24
-68 -50 -69 -53 -72 -305 l-3 -229 -279 0 -279 0 -3 228 -3 229 -29 37 c-49
65 -62 67 -381 64 -268 -3 -285 -4 -311 -24 -68 -50 -69 -53 -72 -305 l-3
-229 -53 0 c-37 0 -60 -6 -74 -17 -11 -10 -93 -153 -182 -318 -90 -165 -165
-302 -166 -304 -2 -2 -4 302 -4 677 l0 682 2240 0 2240 0 0 -360z m-3360 -440
l0 -480 -240 0 -240 0 0 480 0 480 240 0 240 0 0 -480z m1360 440 l0 -40 -240
0 -240 0 0 40 0 40 240 0 240 0 0 -40z m1360 -440 l0 -480 -240 0 -240 0 0
480 0 480 240 0 240 0 0 -480z m-1360 0 l0 -240 -240 0 -240 0 0 240 0 240
240 0 240 0 0 -240z m-2000 -295 c0 -243 5 -265 66 -311 l37 -29 298 0 c285 0
299 1 325 21 68 50 69 53 72 305 l3 229 280 0 279 0 0 -215 c0 -243 5 -265 66
-311 l37 -29 298 0 c285 0 299 1 325 21 68 50 69 53 72 305 l3 229 280 0 279
0 0 -215 c0 -243 5 -265 66 -311 l37 -29 298 0 c285 0 299 1 325 21 68 50 69
53 72 305 l3 229 210 0 c130 0 209 -4 207 -10 -1 -5 -88 -167 -193 -359 l-190
-350 -1988 -1 c-1265 0 -1987 3 -1985 10 2 5 89 167 193 359 137 252 195 350
208 351 16 0 17 -17 17 -215z m4000 -265 l0 -240 -131 0 c-79 0 -129 4 -127
10 5 14 253 470 256 470 1 0 2 -108 2 -240z m-2000 120 l0 -40 -240 0 -240 0
0 40 0 40 240 0 240 0 0 -40z m2000 -600 l0 -80 -2240 0 -2240 0 0 80 0 80
2240 0 2240 0 0 -80z"/>
<path d="M2340 3998 c-43 -47 -10 -118 55 -118 41 0 75 32 75 70 0 63 -86 95
-130 48z"/>
<path d="M2670 3998 c-43 -47 -10 -118 55 -118 41 0 75 32 75 70 0 63 -86 95
-130 48z"/>
<path d="M2370 3817 c-37 -19 -56 -60 -45 -93 24 -69 161 -131 263 -121 102
11 212 85 212 142 0 13 -11 36 -23 51 -32 36 -69 35 -131 -4 -64 -41 -107 -42
-168 -3 -60 38 -78 43 -108 28z"/>
<path d="M745 3095 c-50 -49 -15 -135 55 -135 41 0 80 39 80 80 0 41 -39 80
-80 80 -19 0 -40 -9 -55 -25z"/>
<path d="M1065 1175 c-16 -15 -25 -36 -25 -55 0 -19 9 -40 25 -55 21 -22 33
-25 95 -25 62 0 74 3 95 25 33 32 33 78 0 110 -21 22 -33 25 -95 25 -62 0 -74
-3 -95 -25z"/>
<path d="M3996 1844 c-31 -30 -9 -84 34 -84 24 0 50 26 50 50 0 24 -26 50 -50
50 -10 0 -26 -7 -34 -16z"/>
<path d="M3996 1664 c-31 -30 -9 -84 34 -84 24 0 50 26 50 50 0 24 -26 50 -50
50 -10 0 -26 -7 -34 -16z"/>
</g>
</svg>
